<svg id="Layer_1" data-name="Layer 1" xmlns="http://www.w3.org/2000/svg" width="82" height="82" viewBox="0 0 82 82"><defs><style>.cls-1{fill:#08708a;}.cls-2{fill:#fff;}</style></defs><title>Artboard 1</title><circle class="cls-1" cx="41" cy="41" r="40"/><path class="cls-2" d="M35.73,34.37,33.18,32a3.59,3.59,0,0,0,.48-1.78,3.77,3.77,0,1,0-3.77,3.72,3.86,3.86,0,0,0,2-.57l2.53,2.36A8.43,8.43,0,0,1,35.73,34.37Zm10.74-.3,3.38-5.6a4,4,0,0,0,1,.16,3.74,3.74,0,1,0-2.68-1.1l-3.36,5.58A8.75,8.75,0,0,1,46.47,34.07Zm11.65,4.69a3.78,3.78,0,0,0-3.53,2.44l-4.69-.46s0,.07,0,.1a8.57,8.57,0,0,1-.19,1.77l4.69.45a3.76,3.76,0,1,0,3.71-4.3ZM45.18,53.38l-1.06-4.52a8.64,8.64,0,0,1-1.84.42l1,4.53a3.68,3.68,0,0,0-2,3.28,3.77,3.77,0,1,0,3.89-3.71ZM32.87,42.64,27,44.57a3.7,3.7,0,1,0,.62,2,1.9,1.9,0,0,0,0-.25l5.86-1.94A8.81,8.81,0,0,1,32.87,42.64Zm14.88-1.8a6.46,6.46,0,1,0-6.46,6.38A6.42,6.42,0,0,0,47.75,40.84Z"/></svg>