<svg id="Layer_1" data-name="Layer 1" xmlns="http://www.w3.org/2000/svg" width="82" height="82" viewBox="0 0 82 82"><defs><style>.cls-1{fill:#08708a;}.cls-2{fill:#fff;}</style></defs><title>Artboard 1</title><circle class="cls-1" cx="41" cy="41" r="40"/><path class="cls-2" d="M60,39.74A19,19,0,0,0,42.26,22v0H39.74v0A19,19,0,0,0,22,39.74h0v2.52h0A19,19,0,0,0,39.74,60v0h2.52v0A19,19,0,0,0,60,42.26h0V39.74ZM33.9,26.15a19.57,19.57,0,0,0-3,6h-3.8a16.48,16.48,0,0,1,6.78-6Zm-8.1,8.52h4.45a30,30,0,0,0-.63,5.07h-5a16.37,16.37,0,0,1,1.22-5.07Zm-1.22,7.59h5a30,30,0,0,0,.63,5.07H25.8a16.37,16.37,0,0,1-1.22-5.07Zm2.54,7.61H30.9a19.83,19.83,0,0,0,3,6,16.48,16.48,0,0,1-6.78-6ZM39.74,57.3c-2.61-.69-4.85-3.48-6.21-7.43h6.21Zm0-10H32.81a27.63,27.63,0,0,1-.65-5.07h7.58Zm0-7.59H32.16a27.63,27.63,0,0,1,.65-5.07h6.93Zm0-7.61H33.53c1.36-4,3.6-6.74,6.21-7.43Zm15.14,0H51.1a19.83,19.83,0,0,0-3-6,16.48,16.48,0,0,1,6.78,6ZM42.26,24.7c2.61.69,4.85,3.48,6.21,7.43H42.26Zm0,10h6.93a28.53,28.53,0,0,1,.65,5.07H42.26Zm0,7.59h7.58a27.63,27.63,0,0,1-.65,5.07H42.26Zm0,15V49.87h6.21c-1.36,4-3.6,6.74-6.21,7.43Zm5.84-1.45a20.3,20.3,0,0,0,3-6h3.78a16.48,16.48,0,0,1-6.78,6Zm8.1-8.52H51.75a30,30,0,0,0,.63-5.07h5a16.37,16.37,0,0,1-1.22,5.07Zm-3.82-7.59a30,30,0,0,0-.63-5.07H56.2a16.37,16.37,0,0,1,1.22,5.07Zm0,0"/></svg>