<svg id="Layer_1" data-name="Layer 1" xmlns="http://www.w3.org/2000/svg" width="82" height="82" viewBox="0 0 82 82"><defs><style>.cls-1{fill:#08708a;}.cls-2{fill:#fff;fill-rule:evenodd;}</style></defs><title>Artboard 1</title><circle class="cls-1" cx="41" cy="41" r="40"/><path class="cls-2" d="M56.33,27.69a3.22,3.22,0,1,1-4.56-4.54L52,22.9l4.55,4.54ZM45.94,31l2.2-2.19a6.79,6.79,0,0,1,1.1-8.16l1.52-1.52a1.8,1.8,0,0,1,2.53,0l7.09,7.07a1.77,1.77,0,0,1,0,2.52l-1.52,1.51a6.83,6.83,0,0,1-8.18,1.1l-1.59,1.58,4.65,2.83H28.68l8.8-5.35a7,7,0,0,1,7.46,0ZM28.68,41.43H26.89a1.79,1.79,0,1,1,0-3.57H55.53a1.79,1.79,0,1,1,0,3.57H53.74L52.43,53.59l-8.86-8.83a2.32,2.32,0,0,0,.15-.84,2.51,2.51,0,1,0-2.51,2.5,2.55,2.55,0,0,0,.84-.14l10.09,10-.34,3.16a2.14,2.14,0,0,1-2.14,1.92H32.76a2.14,2.14,0,0,1-2.14-1.92Z"/></svg>