<svg id="Layer_1" data-name="Layer 1" xmlns="http://www.w3.org/2000/svg" viewBox="0 0 160 160"><defs><style>.cls-1{fill:#f1641f;}.cls-2{fill:#363686;}.cls-3{fill:#b3b3b3;}.cls-4,.cls-8{fill:#fff;}.cls-5{fill:#d9d9d9;}.cls-6{fill:#6652cc;}.cls-7{fill:gray;}.cls-8{stroke:#b3b3b3;stroke-miterlimit:10;stroke-width:2px;}.cls-9{fill:#4848b3;}.cls-10{fill:#cc3029;}.cls-11{fill:#0bd9ac;}.cls-12{fill:#ffd232;}</style></defs><title>Artboard 1</title><path class="cls-1" d="M80,158h0c-1.69,0-3.41-.06-5.09-.17l.2-3c1.61.11,3.26.16,4.89.16Zm5.11-.17-.2-3c1.62-.11,3.27-.27,4.88-.48l.39,3C88.51,157.55,86.81,157.72,85.12,157.83Zm-15.29-.49c-1.67-.22-3.37-.5-5-.83l.58-2.94c1.6.32,3.23.58,4.84.79Zm25.4-.83-.58-2.95c1.6-.31,3.21-.69,4.78-1.11l.77,2.9C98.57,155.79,96.9,156.18,95.23,156.51Zm-35.4-1.15c-1.64-.44-3.28-.93-4.89-1.48l1-2.84c1.54.52,3.12,1,4.69,1.42Zm45.26-1.49-1-2.84c1.55-.52,3.09-1.1,4.59-1.73l1.15,2.78C108.31,152.72,106.7,153.33,105.09,153.87Zm-54.92-1.78c-1.57-.65-3.13-1.35-4.65-2.1l1.32-2.69c1.46.71,3,1.4,4.47,2ZM114.52,150l-1.32-2.69c1.45-.72,2.9-1.5,4.32-2.32l1.5,2.6C117.55,148.41,116,149.22,114.52,150ZM41,147.58c-1.48-.85-2.93-1.75-4.33-2.69l1.67-2.5c1.34.9,2.74,1.78,4.16,2.59Zm82.34-2.72-1.67-2.5c1.35-.9,2.69-1.86,4-2.86l1.83,2.38C126.15,142.92,124.76,143.92,123.36,144.86Zm-90.82-3c-1.33-1-2.66-2.12-3.94-3.24l2-2.25c1.23,1.08,2.5,2.12,3.79,3.11Zm98.91-3.28-2-2.25c1.21-1.07,2.41-2.2,3.56-3.35l2.14,2.11h0C134,136.35,132.71,137.52,131.45,138.63ZM24.88,135.18l0,0c-1.19-1.18-2.35-2.42-3.47-3.69l2.26-2c1.07,1.22,2.19,2.41,3.33,3.55Zm113.78-3.76-2.25-2c1.07-1.23,2.12-2.5,3.11-3.79l2.38,1.82C140.87,128.82,139.78,130.14,138.66,131.42Zm-120.52-3.9c-1-1.34-2-2.74-3-4.14l2.49-1.67c.9,1.35,1.87,2.69,2.86,4Zm126.73-4.19-2.49-1.67c.91-1.35,1.78-2.75,2.59-4.16l2.6,1.5C146.72,120.47,145.82,121.92,144.87,123.33ZM12.45,119c-.84-1.46-1.66-3-2.41-4.5l2.69-1.33c.72,1.47,1.5,2.92,2.32,4.33ZM150,114.5l-2.69-1.32c.72-1.47,1.4-3,2-4.47l2.77,1.14C151.44,111.42,150.73,113,150,114.5Zm-142-4.61c-.65-1.57-1.25-3.17-1.8-4.78l2.85-1c.52,1.54,1.1,3.09,1.72,4.59Zm146-4.81-2.84-1c.52-1.53,1-3.11,1.42-4.69l2.89.77C154.92,101.84,154.42,103.48,153.88,105.08ZM4.65,100.22c-.43-1.63-.82-3.3-1.15-5l2.94-.58c.32,1.6.69,3.21,1.11,4.78Zm151.86-5-2.94-.58c.31-1.6.58-3.23.79-4.84l3,.39C157.12,91.87,156.84,93.56,156.51,95.22Zm-153.84-5c-.22-1.68-.39-3.39-.5-5.08l3-.2c.11,1.63.27,3.27.48,4.89Zm155.16-5.11-3-.2c.11-1.63.16-3.28.16-4.9h3C158,81.7,157.94,83.41,157.83,85.11ZM2,80v0c0-1.68,0-3.38.16-5.07l3,.2C5.05,76.75,5,78.39,5,80ZM154.84,75.1c-.11-1.64-.27-3.28-.48-4.88l3-.39c.22,1.67.38,3.37.5,5.07ZM5.63,70.24l-3-.39c.22-1.68.5-3.38.82-5l2.95.58C6.11,67,5.85,68.62,5.63,70.24Zm147.94-4.87c-.32-1.6-.69-3.21-1.11-4.78l2.9-.77c.43,1.63.82,3.3,1.15,5Zm-146-4.75-2.89-.77c.43-1.64.93-3.28,1.47-4.89l2.84,1C8.43,57.47,8,59.05,7.53,60.62ZM151,55.89c-.52-1.54-1.1-3.08-1.73-4.59l2.77-1.15c.65,1.57,1.26,3.18,1.8,4.78ZM10.67,51.33,7.9,50.18c.65-1.56,1.35-3.12,2.1-4.64l2.7,1.32C12,48.33,11.29,49.83,10.67,51.33Zm136.62-4.51c-.72-1.46-1.5-2.91-2.32-4.32l2.6-1.5c.85,1.46,1.66,3,2.41,4.5ZM15,42.54,12.41,41c.84-1.47,1.75-2.93,2.69-4.34l2.5,1.67C16.69,39.72,15.82,41.12,15,42.54Zm127.37-4.21c-.91-1.36-1.88-2.7-2.87-4l2.38-1.83c1,1.34,2,2.74,3,4.15ZM20.45,34.39l-2.37-1.83c1-1.34,2.12-2.67,3.23-4l2.26,2C22.5,31.82,21.45,33.09,20.45,34.39Zm115.94-3.84c-1.07-1.22-2.2-2.42-3.36-3.58l1.44-1.52.67-.62q1.83,1.83,3.5,3.74ZM27,27,24.8,24.89l.06-.06c1.18-1.17,2.41-2.33,3.66-3.43l2,2.25C29.3,24.71,28.11,25.82,27,27Zm102.42-3.41c-1.22-1.08-2.5-2.12-3.79-3.12l1.83-2.38c1.34,1,2.67,2.12,3.94,3.24Zm-95.1-3-1.83-2.38c1.34-1,2.74-2,4.15-3l1.67,2.49C36.92,18.57,35.58,19.53,34.29,20.53Zm87.32-3c-1.35-.9-2.75-1.77-4.16-2.58l1.5-2.6c1.46.84,2.92,1.75,4.33,2.69ZM42.44,15.06l-1.5-2.6c1.46-.85,3-1.66,4.5-2.41l1.33,2.69C45.31,13.46,43.85,14.24,42.44,15.06Zm70.68-2.37c-1.46-.72-3-1.4-4.47-2l1.15-2.78c1.56.65,3.12,1.36,4.65,2.1Zm-61.88-2L50.09,7.94c1.57-.65,3.18-1.26,4.78-1.8l1,2.84C54.29,9.5,52.75,10.09,51.24,10.71Zm52.82-1.77c-1.54-.52-3.12-1-4.7-1.41l.77-2.9c1.64.44,3.28.93,4.89,1.47ZM60.53,7.56l-.77-2.9c1.63-.44,3.3-.83,5-1.16l.58,2.94C63.71,6.76,62.1,7.14,60.53,7.56ZM94.58,6.42c-1.6-.31-3.23-.58-4.84-.79l.38-3c1.69.22,3.38.49,5,.82ZM70.16,5.65l-.4-3c1.68-.22,3.39-.39,5.08-.5l.2,3C73.41,5.27,71.77,5.43,70.16,5.65Zm14.69-.49C83.24,5.05,81.61,5,80,5l0-3h0c1.67,0,3.37,0,5,.16Z"/><rect class="cls-2" x="50.39" y="63.45" width="58.09" height="47.74"/><path class="cls-3" d="M41,66.14H119c3.37-2.44,3.37-6.52,0-9L86.1,33.26a11.08,11.08,0,0,0-12.2,0L41,57.06C37.59,59.5,37.59,63.7,41,66.14Z"/><path class="cls-4" d="M42.38,62.51a1.57,1.57,0,0,1-.33-.91,2.12,2.12,0,0,1,1-1.6L76,36.16A6.86,6.86,0,0,1,80,35a7,7,0,0,1,4,1.15l32.94,23.92a2.1,2.1,0,0,1,1,1.54,1.47,1.47,0,0,1-.33.86Z"/><polygon class="cls-3" points="54.77 76.02 51.5 76.02 48.22 76.02 46.28 104.74 51.5 104.74 56.71 104.74 54.77 76.02"/><path class="cls-4" d="M60.91,107.71v-3.23a2.72,2.72,0,0,0-2.72-2.71H44.8a2.71,2.71,0,0,0-2.71,2.71v3.23Z"/><path class="cls-4" d="M44.57,71.07s0,0,0,.05V75a2,2,0,0,0,2,2h9.79a2,2,0,0,0,2-2V71.12s0,0,0-.05Z"/><rect class="cls-5" x="44.56" y="71.12" width="13.87" height="2.45"/><rect class="cls-5" x="42.09" y="105.26" width="18.82" height="2.45"/><polygon class="cls-3" points="83.27 76.02 80 76.02 76.73 76.02 74.78 104.74 80 104.74 85.22 104.74 83.27 76.02"/><path class="cls-4" d="M73.07,71.07V75a2,2,0,0,0,2,2h9.78a2,2,0,0,0,2-2v-3.9Z"/><path class="cls-4" d="M89.41,107.71v-3.23a2.72,2.72,0,0,0-2.72-2.71H73.31a2.72,2.72,0,0,0-2.72,2.71v3.23Z"/><rect class="cls-5" x="73.07" y="71.12" width="13.87" height="2.45"/><rect class="cls-5" x="70.59" y="105.26" width="18.82" height="2.45"/><polygon class="cls-3" points="111.78 76.02 108.5 76.02 105.23 76.02 103.29 104.74 108.5 104.74 113.72 104.74 111.78 76.02"/><path class="cls-4" d="M101.58,71.07s0,0,0,.05V75a2,2,0,0,0,2,2h9.79a2,2,0,0,0,2-2V71.12s0,0,0-.05Z"/><path class="cls-4" d="M117.91,107.71v-3.23a2.71,2.71,0,0,0-2.71-2.71H101.81a2.72,2.72,0,0,0-2.72,2.71v3.23Z"/><rect class="cls-5" x="101.57" y="71.12" width="13.87" height="2.45"/><rect class="cls-5" x="99.09" y="105.26" width="18.82" height="2.45"/><path class="cls-1" d="M80,61.08A11.63,11.63,0,1,1,91.62,49.46,11.64,11.64,0,0,1,80,61.08Zm0-20.47a8.85,8.85,0,1,0,8.85,8.85A8.86,8.86,0,0,0,80,40.61Z"/><path class="cls-6" d="M82.59,46.72a3.09,3.09,0,0,0-2.48-1.11c-1.22,0-2.34.35-2.34,1.38s1.16,1.14,2.4,1.29c2.14.26,4.43.65,4.43,3.23,0,2-1.65,3.1-3.48,3.23v1.47H79.26V54.82a4.39,4.39,0,0,1-3.87-2.52l1.74-.73a3.2,3.2,0,0,0,2.92,1.54c1.32,0,2.54-.45,2.54-1.6,0-1-1.22-1.32-2.58-1.48-2.1-.24-4.16-.6-4.16-3,0-1.93,1.7-2.81,3.41-3V42.7h1.86V44a3.69,3.69,0,0,1,3.06,2Z"/><rect class="cls-7" x="39.39" y="65.12" width="81.22" height="5.94"/><rect class="cls-3" x="34.44" y="113.66" width="91.12" height="6.93"/><rect class="cls-7" x="38.4" y="107.71" width="83.2" height="5.94"/><rect class="cls-3" x="39.39" y="68.09" width="81.22" height="2.97"/><circle class="cls-8" cx="25.1" cy="25.1" r="21.6"/><polygon class="cls-9" points="18.2 14.62 18.2 29.34 32 29.34 35.68 33.94 35.68 29.34 39.36 29.34 39.36 14.62 18.2 14.62"/><polygon class="cls-1" points="10.46 19.3 10.46 34.02 14.14 34.02 14.14 38.62 17.82 34.02 31.63 34.02 31.63 19.3 10.46 19.3"/><circle class="cls-4" cx="15.52" cy="27.12" r="1.38"/><circle class="cls-4" cx="21.04" cy="27.12" r="1.38"/><circle class="cls-4" cx="26.56" cy="27.12" r="1.38"/><circle class="cls-8" cx="25.1" cy="134.9" r="21.6"/><path class="cls-10" d="M25.09,151.67h0S25.09,151.67,25.09,151.67Z"/><path class="cls-11" d="M37.27,125.52a1.09,1.09,0,0,0-1.22-.71c-4.47,1.47-9.29-.89-10.94-1.88l0,0v0c-1.65,1-6.47,3.35-10.94,1.88a1.09,1.09,0,0,0-1.22.71c-1.08,3.14-3.73,12.79,3.75,20.55,3.07,3.19,8,5.3,8.41,5.57v0l0,0c.39-.27,5.34-2.38,8.41-5.57C41,138.31,38.35,128.66,37.27,125.52Z"/><path class="cls-10" d="M25.11,151.67s0,0,0,0Z"/><path class="cls-4" d="M34.87,128.17c-3.54,1.23-8-.66-9.76-1.54l0,0v0c-1.79.88-6.22,2.77-9.76,1.54a15.39,15.39,0,0,0,3.53,15.71,22,22,0,0,0,6.23,4v0l0,0a22,22,0,0,0,6.23-4A15.39,15.39,0,0,0,34.87,128.17Z"/><path class="cls-9" d="M25.15,141.46a1.34,1.34,0,0,1-1-.48L19.9,136A1.35,1.35,0,0,1,22,134.27L25,137.86l3.84-5.73a1.35,1.35,0,1,1,2.25,1.51l-4.83,7.22a1.38,1.38,0,0,1-1.05.6Z"/><circle class="cls-8" cx="134.9" cy="25.1" r="21.6"/><rect class="cls-11" x="122.52" y="13.72" width="24.75" height="6.93"/><rect class="cls-12" x="133.41" y="22.63" width="13.86" height="5.94"/><rect class="cls-9" x="133.41" y="30.55" width="13.86" height="5.94"/><rect class="cls-1" x="122.52" y="22.63" width="8.91" height="13.86"/><circle class="cls-8" cx="134.9" cy="134.9" r="21.6"/><path class="cls-12" d="M151.85,134.9c0-2.54-3.18-4.38-7.51-5.44.22-.75.41-1.49.55-2.19.89-4.59-.33-6.37-1.51-7-2.21-1.27-5.4.58-8.48,3.8-3.08-3.22-6.27-5.07-8.48-3.8-1.18.68-2.4,2.46-1.51,7,.14.7.32,1.44.55,2.19-4.33,1.06-7.51,2.89-7.51,5.44s3.18,4.38,7.51,5.44c-.23.75-.41,1.49-.55,2.19-.89,4.59.33,6.37,1.51,7.05a3.12,3.12,0,0,0,1.6.41c1.24,0,3-.62,5.26-2.62q.81-.7,1.62-1.56.81.85,1.62,1.56c2.3,2,4,2.62,5.26,2.62a3.15,3.15,0,0,0,1.6-.41c1.18-.68,2.4-2.46,1.51-7.05-.14-.7-.33-1.44-.55-2.19C148.67,139.28,151.85,137.45,151.85,134.9Zm-10.09-13.09a1.32,1.32,0,0,1,.62.14c.65.38,1.14,1.88.55,4.94-.14.69-.32,1.41-.54,2.15a38.51,38.51,0,0,0-3.83-.48c-.75-1.09-1.53-2.12-2.34-3.08C138.53,123.05,140.56,121.81,141.76,121.81Zm-.69,15.36c.25.57.47,1.14.68,1.69-.58.1-1.17.18-1.8.26.19-.32.39-.64.58-1S140.89,137.5,141.07,137.17Zm-2.27,0c-.44.75-.89,1.47-1.35,2.17-.82.05-1.66.08-2.55.08s-1.73,0-2.55-.08c-.46-.7-.91-1.42-1.35-2.17s-.83-1.5-1.21-2.25c.38-.75.78-1.5,1.21-2.25s.89-1.49,1.34-2.17c.82,0,1.67-.08,2.56-.08s1.74,0,2.56.08c.45.68.89,1.4,1.34,2.17s.83,1.5,1.21,2.25C139.63,135.65,139.23,136.4,138.8,137.15ZM136,141.38c-.37.5-.74,1-1.12,1.42-.38-.45-.75-.92-1.12-1.42l1.12,0Zm-6.75-3.23c.19.33.39.65.58,1-.63-.08-1.22-.16-1.8-.26.21-.55.43-1.12.68-1.69C128.91,137.5,129.08,137.83,129.27,138.15Zm-.54-5.52c-.25-.57-.47-1.13-.68-1.69.58-.09,1.17-.18,1.8-.26l-.58,1C129.08,132,128.91,132.3,128.73,132.63Zm5.05-4.21c.37-.51.75-1,1.12-1.44.37.45.75.93,1.12,1.44l-1.12,0Zm6.75,3.23-.58-1c.63.08,1.22.17,1.8.26-.21.56-.43,1.12-.68,1.69C140.89,132.3,140.72,132,140.53,131.65Zm-13.66-4.76c-.59-3.06-.1-4.56.55-4.94a1.32,1.32,0,0,1,.62-.14c1.2,0,3.23,1.24,5.54,3.67-.81,1-1.59,2-2.34,3.08a38.51,38.51,0,0,0-3.83.48C127.19,128.3,127,127.57,126.87,126.89Zm-6.92,8c0-1.17,2.21-2.63,6.12-3.56.42,1.16.92,2.35,1.5,3.56-.58,1.21-1.08,2.4-1.5,3.56C122.16,137.53,120,136.07,120,134.9Zm12,11c-2.35,2-3.89,2.37-4.55,2s-1.14-1.88-.55-4.94c.14-.68.32-1.41.54-2.15a38.31,38.31,0,0,0,3.82.48,37,37,0,0,0,2.33,3.08C133,144.88,132.5,145.4,132,145.86Zm11-3c.59,3.06.1,4.56-.55,4.94s-2.2.05-4.55-2c-.53-.46-1.06-1-1.59-1.54a37,37,0,0,0,2.33-3.08,38.31,38.31,0,0,0,3.82-.48C142.61,141.5,142.79,142.23,142.93,142.91Zm.8-4.45c-.42-1.16-.92-2.35-1.5-3.56.58-1.21,1.08-2.4,1.5-3.56,3.91.93,6.12,2.39,6.12,3.56S147.64,137.53,143.73,138.46Z"/><path class="cls-9" d="M134.9,134.39c2.1,0,3.81-2.09,3.81-4.68S137,125,134.9,125s-3.81,2.1-3.81,4.68S132.79,134.39,134.9,134.39Z"/><path class="cls-9" d="M141.07,135.62c-1.4-1.38-2.81-1.07-3.28-.74a4.1,4.1,0,0,1-1.54.74h-2.7a4.1,4.1,0,0,1-1.54-.74c-.47-.33-1.88-.64-3.28.74,0,0-1.95,2.27-1.95,4.54,0,1.34.27,2.61,1.2,2.61h13.84c.93,0,1.2-1.27,1.2-2.61C143,137.89,141.07,135.62,141.07,135.62Z"/></svg>