<svg id="Layer_1" data-name="Layer 1" xmlns="http://www.w3.org/2000/svg" viewBox="0 0 160 160"><defs><style>.cls-1{fill:#b3b3b3;}.cls-2{fill:#fff;}.cls-3{fill:#e23e1f;}.cls-4{fill:#ffd232;}.cls-5{fill:#ada6ff;}.cls-6{fill:#0bd9ac;}.cls-7{fill:#f1641f;}.cls-8{fill:#2a2a8c;}.cls-9{fill:#353f49;}</style></defs><title>Artboard 1</title><path class="cls-1" d="M30.75,116.25a5.61,5.61,0,0,0-3.1-5L21,107.9a2.57,2.57,0,0,1-1.41-2.28V103a9.59,9.59,0,0,0,.64-.81A15.24,15.24,0,0,0,22.27,98a2.11,2.11,0,0,0,1.49-2V93.22a2.06,2.06,0,0,0-.7-1.55v-4s.83-6.29-7.68-6.29-7.69,6.29-7.69,6.29v4A2.06,2.06,0,0,0,7,93.22V96a2.08,2.08,0,0,0,1,1.76A13.9,13.9,0,0,0,10.48,103v2.55a2.56,2.56,0,0,1-1.33,2.24l-6.23,3.4A5.6,5.6,0,0,0,0,116.11v2.26H30.75Z"/><path class="cls-1" d="M142.17,73.56a8,8,0,0,1-3.64-1l-.7,2.59a8.78,8.78,0,0,0,3.65,1v1.58h2.79v-1.8c2.38-.58,3.65-2.15,3.65-4.18s-1.22-3.41-3.79-4.35c-1.81-.64-2.48-1.08-2.48-2s.7-1.49,2-1.49a6.37,6.37,0,0,1,3,.82l.7-2.54a8,8,0,0,0-3.07-.8V59.26h-2.79v2.36a4.32,4.32,0,0,0-3.27,4.15c0,1.66,1.13,3.18,3.9,4.14,1.76.61,2.34,1.11,2.34,2.07S143.75,73.56,142.17,73.56Z"/><path class="cls-1" d="M144.86,90.85c4.56-1.71,6.68-3.61,11-9.49,4-5.4,4.65-11.79,3.7-15.31s-4.69-6.08-6-5.79-4.31,4.94-4.4,7.22,3.33,3.67,4.47,4.33a16.43,16.43,0,0,1-3.14,6.94,56.38,56.38,0,0,1-5.3,5.57s-3.9-3.36-4.84-3.18c-2.51.51-5.6,4.24-5.6,7C134.85,89.73,140.3,92.56,144.86,90.85Z"/><path class="cls-1" d="M80.92,19.27s-1.25-3-4-3a3.73,3.73,0,0,0-3.59,2.07,2.83,2.83,0,0,0-2.59.41c-1.54,1.23-1.22,2.41-1.22,2.41A2.81,2.81,0,0,0,67.23,24a2.46,2.46,0,0,0,2.11,2.62H81c.89,0,3.37-.31,3.37-3.58A3.6,3.6,0,0,0,80.92,19.27Z"/><path class="cls-1" d="M31.32,60.93A18.76,18.76,0,1,0,12.56,42.17,18.78,18.78,0,0,0,31.32,60.93Zm6.56-3.37a16.5,16.5,0,0,0,2.38-3.69,18.05,18.05,0,0,1,1.68,1.23A16.61,16.61,0,0,1,37.88,57.56Zm5.53-3.85A18.79,18.79,0,0,0,41.05,52a28.3,28.3,0,0,0,1.61-8.8H48A16.65,16.65,0,0,1,43.41,53.71ZM48,41.16H42.66a28.29,28.29,0,0,0-1.61-8.79,19.75,19.75,0,0,0,2.38-1.73A16.68,16.68,0,0,1,48,41.16ZM42,29.25a15.47,15.47,0,0,1-1.68,1.24,16.39,16.39,0,0,0-2.39-3.72A16.86,16.86,0,0,1,42,29.25Zm-9.63-3.71c2.43.49,4.61,2.71,6.13,5.94A16.71,16.71,0,0,1,32.32,33Zm0,9.52a18.89,18.89,0,0,0,6.89-1.71,26.2,26.2,0,0,1,1.44,7.81H32.32Zm0,8.12h8.33A26.33,26.33,0,0,1,39.21,51a18.75,18.75,0,0,0-6.89-1.72Zm0,8.12a16.63,16.63,0,0,1,6.13,1.57c-1.53,3.22-3.7,5.44-6.13,5.93ZM20.7,55.1a15.26,15.26,0,0,1,1.67-1.23,16.5,16.5,0,0,0,2.38,3.69A16.55,16.55,0,0,1,20.7,55.1Zm9.61,3.7c-2.42-.49-4.6-2.71-6.12-5.93a16.53,16.53,0,0,1,6.12-1.57Zm0-9.52A18.52,18.52,0,0,0,23.43,51,26.14,26.14,0,0,1,22,43.18h8.32Zm0-8.12H22a26.2,26.2,0,0,1,1.43-7.81,18.89,18.89,0,0,0,6.89,1.71Zm0-15.62V33a16.76,16.76,0,0,1-6.13-1.56C25.71,28.25,27.88,26,30.31,25.54Zm-5.56,1.23a16.39,16.39,0,0,0-2.39,3.72,16.51,16.51,0,0,1-1.68-1.24A16.86,16.86,0,0,1,24.75,26.77Zm-5.54,3.87a18.89,18.89,0,0,0,2.37,1.73A28.29,28.29,0,0,0,20,41.16H14.63A16.64,16.64,0,0,1,19.21,30.64ZM20,43.18A28,28,0,0,0,21.59,52a18.89,18.89,0,0,0-2.37,1.73,16.65,16.65,0,0,1-4.59-10.53Z"/><path class="cls-1" d="M125.56,125.29V112.6h-.11a1,1,0,0,0-1,1v12.8a1,1,0,0,0,1,1h25.42a1,1,0,0,0,1-1v-.11H126.55A1,1,0,0,1,125.56,125.29Z"/><path class="cls-1" d="M127.76,123.09V109.72h-.1a1,1,0,0,0-1,1v13.47a1,1,0,0,0,1,1h26.15a1,1,0,0,0,1-1v-.1H128.76A1,1,0,0,1,127.76,123.09Z"/><path class="cls-1" d="M128.93,122a1,1,0,0,0,1,1h26.26a1,1,0,0,0,1-1V111.8H128.93Z"/><path class="cls-1" d="M156.19,105.4H129.93a1,1,0,0,0-1,1v1.95h28.26V106.4A1,1,0,0,0,156.19,105.4Z"/><path class="cls-1" d="M17.24,143.69V130.58h-.1a1,1,0,0,0-1,1v13.21a1,1,0,0,0,1,1H45.86a1,1,0,0,0,1-1v-.1H18.22A1,1,0,0,1,17.24,143.69Z"/><path class="cls-1" d="M19.41,141.53V128.42H19.3a1,1,0,0,0-1,1v13.21a1,1,0,0,0,1,1H48a1,1,0,0,0,1-1v-.1H20.38A1,1,0,0,1,19.41,141.53Z"/><path class="cls-1" d="M50.18,126.25H21.47a1,1,0,0,0-1,1v13.22a1,1,0,0,0,1,1H50.18a1,1,0,0,0,1-1V127.23A1,1,0,0,0,50.18,126.25Zm-25.45,13.3A1.72,1.72,0,0,0,23,137.84v-8a1.71,1.71,0,0,0,1.71-1.71h6.56a7,7,0,0,0,0,11.42Zm8.53,0a6.12,6.12,0,0,1,0-11.42h5.13a6.12,6.12,0,0,1,0,11.42Zm15.37-1.71a1.72,1.72,0,0,0-1.71,1.71H40.36a7,7,0,0,0,0-11.42h6.56a1.71,1.71,0,0,0,1.71,1.71Z"/><path class="cls-1" d="M36.41,133.32c-.84-.3-1.16-.51-1.16-.93s.33-.7.93-.7a3.05,3.05,0,0,1,1.41.38l.33-1.19a4,4,0,0,0-1.44-.38v-1H35.17v1.1a2,2,0,0,0-1.53,2c0,.78.53,1.49,1.83,1.94.82.29,1.09.52,1.09,1s-.32.74-1.06.74a3.78,3.78,0,0,1-1.71-.48L33.46,137a4.23,4.23,0,0,0,1.71.45v.74h1.31v-.84a2,2,0,0,0,1.71-2C38.18,134.37,37.62,133.75,36.41,133.32Z"/><path class="cls-1" d="M106.37,16.36h-15l-3.65-5H82.41v0a1.17,1.17,0,0,0-1,1.16,1.15,1.15,0,0,0,1,1.15v0h4.15l2.78,3.83a4.38,4.38,0,0,0,.17,2.33l1.88,6.59a3,3,0,0,0,2.42,1.73h9.78A2.92,2.92,0,0,0,106,26.47l1.89-6.59C108.8,16.71,107.1,16.36,106.37,16.36Z"/><path class="cls-1" d="M95.23,30.12a2.42,2.42,0,1,0,2.42,2.41A2.41,2.41,0,0,0,95.23,30.12Z"/><path class="cls-1" d="M102.16,30.12a2.42,2.42,0,1,0,2.42,2.41A2.41,2.41,0,0,0,102.16,30.12Z"/><circle class="cls-2" cx="80.96" cy="88.11" r="58.33"/><path class="cls-1" d="M81,29.78A58.34,58.34,0,1,1,22.62,88.11,58.32,58.32,0,0,1,81,29.78m0-2.2a60.54,60.54,0,1,0,60.53,60.53A60.6,60.6,0,0,0,81,27.58Z"/><path class="cls-3" d="M88.64,88.11A7.68,7.68,0,1,1,81,80.43,7.68,7.68,0,0,1,88.64,88.11Z"/><path class="cls-4" d="M81,135.23V122.94a34.86,34.86,0,0,0,34.82-34.82h12.29A47.17,47.17,0,0,1,81,135.23Z"/><path class="cls-5" d="M105.58,63.48A34.6,34.6,0,0,0,81,53.29V41a46.8,46.8,0,0,1,33.31,13.79Z"/><path class="cls-6" d="M81,135.23v-12.3a34.68,34.68,0,0,1-24.61-10.21l-8.69,8.69A47,47,0,0,0,81,135.23Z"/><path class="cls-7" d="M47.66,121.41l8.69-8.69A34.8,34.8,0,0,1,81,53.29V41a47.09,47.09,0,0,0-33.3,80.41Z"/><path class="cls-8" d="M81,112.69a24.58,24.58,0,1,1,24.58-24.58A24.6,24.6,0,0,1,81,112.69Zm0-41A16.39,16.39,0,1,0,97.34,88.11,16.4,16.4,0,0,0,81,71.73Z"/><polygon class="cls-7" points="128.43 32.73 118.06 43.1 118.06 51.01 125.97 51.01 136.34 40.64 128.43 40.64 128.43 32.73"/><path class="cls-9" d="M131.64,35.94,80.22,87.37a1.05,1.05,0,1,0,1.48,1.49l51.43-51.43Z"/></svg>