<svg id="Layer_1" data-name="Layer 1" xmlns="http://www.w3.org/2000/svg" viewBox="0 0 160 160"><defs><style>.cls-1{fill:#ffd232;}.cls-2{fill:#fff;}.cls-3{fill:#634bd9;}.cls-4{fill:#30f2ab;}.cls-5{fill:#ada6ff;}.cls-6{fill:#fa7357;}.cls-7{fill:#b3b3b3;}</style></defs><title>Artboard 1</title><path class="cls-1" d="M98.52,84.1a9.45,9.45,0,0,0,1.15,4.52h-20v21.76a9.62,9.62,0,1,1,0,17v21.76h20a9.46,9.46,0,0,1-1-4.24,9.72,9.72,0,0,1,19.44,0,9.46,9.46,0,0,1-1,4.24h19.77V127.38a9.78,9.78,0,0,1-4.54,1.12,9.62,9.62,0,1,1,4.54-18.12V88.62h-20A9.44,9.44,0,0,0,118,84.1a9.72,9.72,0,0,0-19.44,0Z"/><path class="cls-2" d="M118,84.1a9.72,9.72,0,0,0-19.44,0,9.45,9.45,0,0,0,1.15,4.52h-20v21.76a9.74,9.74,0,0,1,14.26,8.5,9.46,9.46,0,0,1-1.37,4.89,39.13,39.13,0,0,0,26.72-35.15h-2.45A9.44,9.44,0,0,0,118,84.1Z"/><path class="cls-3" d="M93.92,118.88a9.46,9.46,0,0,1-1.37,4.89A39.64,39.64,0,0,0,104,117.66v-3.17a8.7,8.7,0,0,0-4.87-7.8l-10.51-5.2a4,4,0,0,1-2.22-3.55V93.87a14.93,14.93,0,0,0,1-1.27,23.08,23.08,0,0,0,2.27-4h-10v21.76a9.74,9.74,0,0,1,14.26,8.5Z"/><path class="cls-4" d="M84.2,128.5a9.62,9.62,0,1,0-4.54-18.12V88.62H60a9.42,9.42,0,0,0,1.13-4.48,9.72,9.72,0,0,0-19.44,0,9.42,9.42,0,0,0,1.13,4.48h-20v21.76a9.62,9.62,0,1,1,0,17v21.76h20a9.47,9.47,0,0,1-1.14-4.52,9.72,9.72,0,0,1,19.44,0A9.48,9.48,0,0,1,60,149.14H79.66V127.38A9.74,9.74,0,0,0,84.2,128.5Z"/><path class="cls-2" d="M84.2,109.27a9.74,9.74,0,0,0-4.54,1.11V88.62H60a9.42,9.42,0,0,0,1.13-4.48,9.72,9.72,0,0,0-19.44,0,9.42,9.42,0,0,0,1.13,4.48H40.38a39.55,39.55,0,0,0,52.17,35.15,9.46,9.46,0,0,0,1.37-4.89A9.67,9.67,0,0,0,84.2,109.27Z"/><path class="cls-3" d="M72.13,97.84A4,4,0,0,1,70,101.32l-9.81,5.3a8.71,8.71,0,0,0-4.6,7.66v3.38a39.79,39.79,0,0,0,36.92,6.11,9.46,9.46,0,0,0,1.37-4.89,9.74,9.74,0,0,0-14.26-8.5V88.62H69.08a21.75,21.75,0,0,0,3,5.25Z"/><path class="cls-5" d="M98.52,23.62a9.46,9.46,0,0,0,1.13,4.49h-20V49.86a9.86,9.86,0,0,1,4.54-1.11A9.62,9.62,0,1,1,84.2,68a9.86,9.86,0,0,1-4.54-1.11V88.62h20a9.42,9.42,0,0,1-1.15-4.52,9.72,9.72,0,0,1,19.44,0,9.42,9.42,0,0,1-1.14,4.52h20V66.88a9.61,9.61,0,1,0,0-17V28.11h-20A9.57,9.57,0,0,0,118,23.62a9.72,9.72,0,0,0-19.44,0Z"/><path class="cls-2" d="M79.83,47.72h-.17v2.13a9.86,9.86,0,0,1,4.54-1.11A9.62,9.62,0,1,1,84.2,68a9.86,9.86,0,0,1-4.54-1.11V88.62h20a9.42,9.42,0,0,1-1.15-4.52,9.72,9.72,0,0,1,19.44,0,9.42,9.42,0,0,1-1.14,4.52h2.45c0-.6,0-1.21,0-1.83A39.28,39.28,0,0,0,79.83,47.72Z"/><path class="cls-3" d="M90.69,86.09A3.26,3.26,0,0,0,93,83V78.64a3.23,3.23,0,0,0-1.1-2.42V69.93a8.74,8.74,0,0,0-.92-4.7A9.73,9.73,0,0,1,84.2,68a9.86,9.86,0,0,1-4.54-1.11V88.62h10A25.09,25.09,0,0,0,90.69,86.09Z"/><path class="cls-6" d="M18,15.8a9.48,9.48,0,0,0,2.25,4.06L.93,24.91,6.56,46a9.75,9.75,0,0,1,16,4.61A9.69,9.69,0,0,1,11,62.38l5.63,21,19.34-5.06A9.69,9.69,0,1,1,52.5,74L71.84,69l-5.62-21a9.85,9.85,0,0,0,4.67-.07A9.6,9.6,0,0,0,77.8,36.11a9.77,9.77,0,0,0-16-4.61l-5.63-21L36.87,15.51a9.44,9.44,0,0,0-.07-4.63A9.72,9.72,0,0,0,24.92,4.05,9.6,9.6,0,0,0,18,15.8Z"/><path class="cls-2" d="M68.83,29c-.92.07-1.84.16-2.76.29l-.15,0a9.79,9.79,0,0,0-4.1,2.22l-.36-1.36-.16,0A39,39,0,0,0,33.22,77.94c.09.35.2.7.31,1l2.39-.62A9.69,9.69,0,1,1,52.5,74L71.84,69l-5.62-21a9.85,9.85,0,0,0,4.67-.07A9.61,9.61,0,0,0,68.83,29Z"/><path class="cls-3" d="M66.22,47.94a9.85,9.85,0,0,0,4.67-.07,9.67,9.67,0,0,0,5.71-4.14c-1.86-2.18-5.44-4.06-12.28-2.27C51.35,44.85,55.15,54,55.15,54l1.63,6.09a3.18,3.18,0,0,0-.44,2.61l1.12,4.21a3.28,3.28,0,0,0,2.18,2.26,19.55,19.55,0,0,0,1.65,2.57L71.84,69Z"/><path class="cls-7" d="M141.36,48a10.64,10.64,0,0,0-3.78.7V27.35H118a10.46,10.46,0,1,0-20.26-3.73,10.17,10.17,0,0,0,.71,3.73H78.9V51.12L80,50.54a8.86,8.86,0,1,1,0,15.65l-1.11-.58V87.86H61.18a10.08,10.08,0,0,0,.71-3.72,10.41,10.41,0,0,0-7.3-9.89L72.77,69.5,67.26,48.88a10.53,10.53,0,0,0,3.83-.28,10.38,10.38,0,0,0,6.4-4.85,10.22,10.22,0,0,0,1.05-7.83,10.51,10.51,0,0,0-16.28-5.74L56.73,9.53l-18.91,5a10.3,10.3,0,0,0-.29-3.79A10.49,10.49,0,0,0,24.72,3.32a10.38,10.38,0,0,0-6.4,4.85A10.22,10.22,0,0,0,17.27,16a10.4,10.4,0,0,0,1.64,3.42L0,24.37l6.15,23,.92-.84a8.79,8.79,0,0,1,3.78-2,9,9,0,0,1,11,6.3,8.7,8.7,0,0,1-.89,6.67,8.88,8.88,0,0,1-5.48,4.15,9,9,0,0,1-4.31.06l-1.23-.28,6.15,23,21.31-5.57-.88-.93a8.8,8.8,0,0,1-1.2-10.44A9,9,0,0,1,51.7,69.55a8.77,8.77,0,0,1,.07,4.23l-.36,0A10.44,10.44,0,0,0,40.93,84.14a10.28,10.28,0,0,0,.7,3.72H22.07v23.78l1.11-.59a8.86,8.86,0,1,1,0,15.66l-1.11-.58V149.9h22l-.61-1.12a8.8,8.8,0,0,1-1-4.16,9,9,0,1,1,16.87,4.16l-.61,1.12h42.15l-.54-1.1a8.58,8.58,0,0,1-.93-3.9,9,9,0,0,1,17.92,0,8.58,8.58,0,0,1-.93,3.9l-.54,1.1h21.74V126.13l-1.11.58a8.85,8.85,0,1,1,0-15.66l1.11.59V68.06a10.64,10.64,0,0,0,3.78.7,10.38,10.38,0,1,0,0-20.75Zm-101,13.77A10.41,10.41,0,0,0,34,66.64a10.28,10.28,0,0,0,.61,11.28L17.11,82.49,12,63.33a10.75,10.75,0,0,0,3.83-.28,10.4,10.4,0,0,0,6.4-4.86,10.21,10.21,0,0,0,1.05-7.83A10.53,10.53,0,0,0,7,44.62L1.86,25.46l19.82-5.19-.87-.93A8.78,8.78,0,0,1,19.63,8.93a9,9,0,0,1,16.44,2.15,8.77,8.77,0,0,1,.06,4.26l-.29,1.22,19.82-5.18,5.75,21.53.93-.85a9,9,0,0,1,14.73,4.25A8.73,8.73,0,0,1,76.18,43a9,9,0,0,1-9.79,4.21l-1.23-.28,5.75,21.5L53.45,73a10.26,10.26,0,0,0-.28-3.82A10.51,10.51,0,0,0,40.36,61.78Zm11,72.46a10.44,10.44,0,0,0-10.48,10.38,10.1,10.1,0,0,0,.72,3.76H23.58V128.56a10.64,10.64,0,0,0,3.78.7,10.38,10.38,0,1,0,0-20.75,10.64,10.64,0,0,0-3.78.7V89.38h20.5l-.6-1.11a8.78,8.78,0,0,1-1-4.13,9,9,0,0,1,17.92,0,8.67,8.67,0,0,1-1,4.13l-.6,1.11H78.9v22.26l1.11-.59a8.86,8.86,0,1,1,0,15.66l-1.11-.58v22.25H61.17a10.3,10.3,0,0,0,.72-3.76A10.44,10.44,0,0,0,51.41,134.24Zm84.66-25a10.64,10.64,0,0,0-3.78-.7,10.38,10.38,0,1,0,0,20.75,10.64,10.64,0,0,0,3.78-.7v19.82H118.21a10,10,0,0,0,.62-3.48,10.48,10.48,0,0,0-21,0,10,10,0,0,0,.62,3.48H80.42V128.56a10.6,10.6,0,0,0,3.78.7,10.38,10.38,0,1,0,0-20.75,10.6,10.6,0,0,0-3.78.7V89.38h20.52l-.61-1.12A8.93,8.93,0,1,1,117.2,84.1a8.74,8.74,0,0,1-1,4.16l-.61,1.12h20.53Zm5.29-42a9,9,0,0,1-4.18-1l-1.11-.58V87.86H118a10.25,10.25,0,0,0,.71-3.76,10.48,10.48,0,0,0-21,0,10.26,10.26,0,0,0,.72,3.76H80.42V68a10.6,10.6,0,0,0,3.78.7A10.38,10.38,0,1,0,84.2,48a10.6,10.6,0,0,0-3.78.7V28.87h20.5l-.6-1.12a8.67,8.67,0,0,1-1-4.13,9,9,0,0,1,17.92,0,8.78,8.78,0,0,1-1,4.13l-.6,1.12h20.5V51.14l1.11-.58a8.83,8.83,0,0,1,4.18-1,8.86,8.86,0,1,1,0,17.71Z"/><polygon class="cls-6" points="143.15 144.18 137.11 150.19 125.54 122.36 153.45 133.91 147.2 140.15 160 153 155.95 157.03 143.15 144.18"/><path class="cls-6" d="M126.1,129.33a6.4,6.4,0,0,1-4.36-10.49l-.19-.47.45.19A6.4,6.4,0,0,1,133.05,123s0,.11,0,.16l2.1.87a8.76,8.76,0,0,0,.07-1,8.57,8.57,0,1,0-8.58,8.55l.37,0Z"/><path class="cls-6" d="M129.4,137.25a15,15,0,0,1-2.78.26A14.56,14.56,0,1,1,141.2,123a14.31,14.31,0,0,1-.4,3.36l2,.84a17,17,0,0,0,.54-4.19,16.72,16.72,0,1,0-16.75,16.68,17.33,17.33,0,0,0,3.63-.39Z"/></svg>