<svg id="Icons" xmlns="http://www.w3.org/2000/svg" width="42" height="42" viewBox="0 0 42 42"><defs><style>.cls-1{fill:#fff;}</style></defs><title>Artboard 1</title><path class="cls-1" d="M15.9,29.37H12.35V18H15.9ZM14,16.58h0a2,2,0,1,1,.05-3.95,2,2,0,1,1,0,3.95ZM30.11,29.37h-4V23.48c0-1.54-.63-2.59-2-2.59a2,2,0,0,0-1.93,1.4,2.67,2.67,0,0,0-.08.93v6.15h-4S18.12,19,18.07,18h4v1.78c.23-.78,1.51-1.89,3.54-1.89,2.53,0,4.51,1.63,4.51,5.16Z"/><path class="cls-1" d="M21,42A21,21,0,1,1,42,21,21,21,0,0,1,21,42ZM21,1.52A19.48,19.48,0,1,0,40.48,21,19.5,19.5,0,0,0,21,1.52Z"/></svg>