<svg id="Icons" xmlns="http://www.w3.org/2000/svg" width="42" height="42" viewBox="0 0 42 42"><defs><style>.cls-1{fill:#fff;}</style></defs><title>Artboard 1</title><path class="cls-1" d="M21,42A21,21,0,1,1,42,21,21,21,0,0,1,21,42ZM21,1.52A19.48,19.48,0,1,0,40.48,21,19.5,19.5,0,0,0,21,1.52Z"/><path class="cls-1" d="M16.61,17.92h1.88V16.09a5,5,0,0,1,.6-2.83A3.38,3.38,0,0,1,22,11.89a11.77,11.77,0,0,1,3.37.34L24.92,15a6.21,6.21,0,0,0-1.51-.23c-.74,0-1.39.27-1.39,1v2.13h3l-.21,2.72H22v9.47H18.49V20.64H16.61Z"/></svg>