<svg id="Layer_1" data-name="Layer 1" xmlns="http://www.w3.org/2000/svg" width="134" height="134" viewBox="0 0 134 134"><defs><style>.cls-1{fill:#fff;}.cls-2{fill:#ca2128;}</style></defs><title>Artboard 1</title><path class="cls-1" d="M67,3A64,64,0,1,1,3,67,64,64,0,0,1,67,3"/><path d="M67,4A63,63,0,1,1,4,67,63,63,0,0,1,67,4m0-3a66,66,0,1,0,66,66A66,66,0,0,0,67,1Z"/><path class="cls-2" d="M40.75,92.5h52.5v18.75H40.75Z"/><path d="M36.89,83.75H40l6.37-15.86H42.59L38.47,79,34.35,67.89H30.53Z"/><path d="M44.93,83.64h3.53l1.44-3.53h6.66L58,83.64h3.62L54.87,67.78H51.68Zm6.21-6.59,2.09-5.11,2.09,5.11Z"/><path d="M69.83,83.89c4.23,0,6.91-2.34,6.91-7.11V67.89H73.28v9c0,2.5-1.29,3.78-3.4,3.78s-3.4-1.32-3.4-3.89V67.89H63v9C63,81.53,65.6,83.89,69.83,83.89Z"/><path d="M80.05,83.64H91.37V80.49H83.51V67.89H80.05Z"/><path d="M95.17,83.64h3.46V71.09h4.8v-3.2H90.38v3.2h4.79Z"/><path d="M49.49,38.64H53V26.09h4.79v-3.2h-13v3.2h4.79Z"/><path d="M60.18,38.64h3.47V32.32H70v6.32h3.5V22.89H70v6.24H63.65V22.89H60.18Z"/><path d="M77.06,38.64h12V35.56H80.5V32.25h7.42V29.17H80.5V26h8.44V22.89H77.06Z"/><path d="M43.46,61.41a8.16,8.16,0,0,0,8.4-7.9v-.29a8.08,8.08,0,0,0-8.06-8.1h-.29A8.14,8.14,0,0,0,35.12,53v.26h0a8,8,0,0,0,8,8.14C43.22,61.42,43.34,61.41,43.46,61.41Zm0-3.19a4.78,4.78,0,0,1-4.77-4.81v-.19a4.7,4.7,0,0,1,4.5-4.9h.22a4.78,4.78,0,0,1,4.77,4.81v.19h0a4.72,4.72,0,0,1-4.52,4.9h-.2Z"/><path d="M54.71,61.14h3.47V56.42h2.63c3.53,0,6.37-1.89,6.37-5.54h0c0-3.22-2.27-5.45-6-5.45H54.71Zm3.47-7.81V48.52h2.68c1.73,0,2.81.83,2.81,2.39h0c0,1.35-1,2.38-2.75,2.38Z"/><path d="M69.52,61.14h12V58.06H73V54.75h7.43V51.67H73V48.48h8.4V45.39H69.52Z"/><path d="M84.37,61.14h3.42v-10l7.63,10h2.94V45.39H94.94v9.7l-7.38-9.7H84.37Z"/><path class="cls-1" d="M50,98H48.18l-2.83,8.1h1.57l.57-1.65h3.06l.56,1.65h1.73Zm-2.07,5.21.74-2.06c.13-.4.26-.85.38-1.36h0a12,12,0,0,0,.37,1.3l.76,2.12Z"/><path class="cls-1" d="M57.9,98H52.14v1.33h2.1v6.77H55.8V99.37h2.1Z"/><path class="cls-1" d="M67.46,98.91a3.48,3.48,0,0,0-2.65-1A3.7,3.7,0,0,0,62,99.05a4.29,4.29,0,0,0-1.17,3.14,4.44,4.44,0,0,0,.91,3,3.46,3.46,0,0,0,2.78,1.1,3.73,3.73,0,0,0,2.8-1.14A4.36,4.36,0,0,0,68.5,102a4.19,4.19,0,0,0-1-3.07Zm-1.33,5.3a2,2,0,0,1-1.49.65,1.87,1.87,0,0,1-1.6-.77,3.57,3.57,0,0,1-.52-2.06,3,3,0,0,1,.66-2,2.05,2.05,0,0,1,2.89-.2,1.89,1.89,0,0,1,.2.2,3.31,3.31,0,0,1,.56,2.07A3,3,0,0,1,66.13,104.21Z"/><path class="cls-1" d="M74.84,104.5a3.85,3.85,0,0,1-1.57.33c-1.58,0-2.37-.91-2.37-2.75a3,3,0,0,1,.57-2,2,2,0,0,1,1.69-.77,5.65,5.65,0,0,1,1.63.25L75,98.19A6.13,6.13,0,0,0,73.24,98a3.8,3.8,0,0,0-3,1.23,4.57,4.57,0,0,0-1,3.14,4.18,4.18,0,0,0,.81,2.71,3.51,3.51,0,0,0,2.93,1.2,6.21,6.21,0,0,0,2.09-.36Z"/><path class="cls-1" d="M81.29,102.51a1.72,1.72,0,0,0-1.08-.68h0a2,2,0,0,0,.93-.72A1.78,1.78,0,0,0,81.5,100a1.74,1.74,0,0,0-.7-1.49,3.45,3.45,0,0,0-2-.52q-1.59,0-2.73.06v8.09h2.38a3.63,3.63,0,0,0,2.55-.82,2.26,2.26,0,0,0,.7-1.7,1.86,1.86,0,0,0-.36-1.14Zm-3.06-1.11H77.6V99.28h.91c.9,0,1.34.34,1.34,1s-.54,1.15-1.62,1.15Zm.22,3.49a6,6,0,0,1-.85,0v-2.27h.68q1.71,0,1.71,1.11c0,.81-.52,1.21-1.54,1.21Z"/><path class="cls-1" d="M88,104.5a3.85,3.85,0,0,1-1.57.33c-1.58,0-2.37-.91-2.37-2.75a3,3,0,0,1,.57-2,2,2,0,0,1,1.69-.77,5.65,5.65,0,0,1,1.63.25l.17-1.42A6.37,6.37,0,0,0,86.43,98a3.82,3.82,0,0,0-3.05,1.23,4.59,4.59,0,0,0-1,3.14,4.18,4.18,0,0,0,.81,2.71,3.51,3.51,0,0,0,2.93,1.2,6.21,6.21,0,0,0,2.09-.36Z"/></svg>